<svg width="104" height="29" viewBox="0 0 104 29" fill="none" xmlns="http://www.w3.org/2000/svg">
<rect y="0.5" width="28.0449" height="28" rx="8" fill="#FFCC00"/>
<path d="M13.9693 9.37315C14.48 9.37315 14.9141 8.95913 14.9141 8.42754V4.6707C14.9141 4.15956 14.5004 3.7251 13.9693 3.7251C13.4381 3.7251 13.0244 4.13912 13.0244 4.6707V8.42754C13.0448 8.93868 13.4585 9.37315 13.9693 9.37315Z" fill="#1A1A1A"/>
<path d="M7.70175 6.8941C7.32891 6.52098 6.74156 6.52098 6.36361 6.8941C5.99077 7.26723 5.99077 7.85504 6.36361 8.23328L9.01434 10.8861C9.38718 11.2592 9.97453 11.2592 10.3525 10.8861C10.7253 10.5129 10.7253 9.92514 10.3525 9.5469L7.70175 6.8941Z" fill="#1A1A1A"/>
<path d="M8.86136 14.4231C8.86136 13.912 8.44766 13.5593 7.91649 13.5593H4.14213C3.63139 13.5593 3.19727 13.912 3.19727 14.4231C3.19727 14.9343 3.61097 15.287 4.14213 15.287H7.89606C8.42723 15.3074 8.86136 14.9547 8.86136 14.4231Z" fill="#1A1A1A"/>
<path d="M10.3525 18.1595C9.97964 17.7864 9.39229 17.7864 9.01434 18.1595L6.36361 20.8123C5.99077 21.1854 5.99077 21.7732 6.36361 22.1515C6.73645 22.5246 7.3238 22.5246 7.70175 22.1515L10.3525 19.4987C10.7253 19.1409 10.7253 18.5122 10.3525 18.1595Z" fill="#1A1A1A"/>
<path d="M18.9791 18.1595C18.6063 17.7864 18.0189 17.7864 17.641 18.1595C17.2681 18.5326 17.2681 19.1204 17.641 19.4987L20.2917 22.1515C20.6645 22.5246 21.2519 22.5246 21.6298 22.1515C22.0027 21.7783 22.0027 21.1905 21.6298 20.8123L18.9791 18.1595Z" fill="#1A1A1A"/>
<path d="M23.8525 13.5593H20.0782C19.5674 13.5593 19.1333 13.912 19.1333 14.4231C19.1333 14.9343 19.547 15.287 20.0782 15.287H23.8321C24.3428 15.287 24.777 14.9343 24.777 14.4231C24.7923 13.912 24.3633 13.5593 23.8525 13.5593Z" fill="#1A1A1A"/>
<path d="M17.641 10.8861C18.0138 11.2592 18.6011 11.2592 18.9791 10.8861L21.6298 8.23328C22.0027 7.86015 22.0027 7.27234 21.6298 6.8941C21.257 6.52098 20.6696 6.52098 20.2917 6.8941L17.641 9.5469C17.2681 9.92003 17.2681 10.5129 17.641 10.8861Z" fill="#1A1A1A"/>
<path d="M16.8545 14.5611C16.8545 14.9342 16.7779 15.3073 16.64 15.66C16.5021 16.0127 16.2876 16.3296 16.0118 16.5852C15.736 16.8612 15.4398 17.0554 15.0874 17.2139C14.7349 17.3519 14.3825 17.4285 13.9893 17.4285C13.6164 17.4285 13.2436 17.3519 12.8912 17.2139C12.5388 17.0759 12.2221 16.8612 11.9667 16.5852C11.6909 16.3092 11.4969 16.0127 11.3385 15.66C11.2006 15.3073 11.124 14.9547 11.124 14.5611C11.124 14.1879 11.2006 13.8148 11.3385 13.4621C11.4764 13.1095 11.6909 12.7925 11.9667 12.537C12.2425 12.261 12.5388 12.0667 12.8912 11.9083C13.2436 11.7703 13.596 11.6936 13.9893 11.6936C14.3621 11.6936 14.7349 11.7703 15.0874 11.9083C15.4398 12.0463 15.7564 12.261 16.0118 12.537C16.2876 12.813 16.4817 13.1095 16.64 13.4621C16.7779 13.8148 16.8545 14.1675 16.8545 14.5611Z" fill="#1A1A1A"/>
<path d="M13.8976 19.3813C12.9425 19.3813 12.1406 20.1941 12.1406 21.1652V27.9166H15.6749V21.1652C15.6647 20.2043 14.8526 19.3813 13.8976 19.3813Z" fill="#1A1A1A"/>
<path d="M33.6238 20.1467C33.2663 19.7889 33.0654 19.4115 33.0654 18.9851C33.0899 18.1813 33.7365 17.647 34.4468 17.647C34.7162 17.647 35.0052 17.7353 35.2256 17.9362C35.8281 18.5636 36.8764 19.4557 38.3704 19.4557C39.6881 19.4557 40.4669 18.8283 40.4669 17.8284C40.4669 16.9805 39.9526 16.6227 38.5908 16.0002L37.0086 15.2846C34.6672 14.2112 33.4377 12.9417 33.4377 11.0449C33.4377 8.56478 35.5342 6.8689 38.3214 6.8689C40.5306 6.8689 41.8238 7.89329 42.4508 8.60889C42.7643 8.94218 42.8525 9.28038 42.8525 9.56956C42.8525 10.3293 42.1618 10.9076 41.4711 10.9076C41.2017 10.9076 40.9127 10.8194 40.6433 10.5939C40.0408 10.0597 39.3697 9.54505 38.3214 9.54505C37.2487 9.54505 36.4943 10.0597 36.4943 10.9714C36.4943 11.7066 36.896 12.0644 38.2137 12.6672L39.8889 13.4024C42.343 14.4955 43.5235 15.7012 43.5235 17.7108C43.5235 20.4359 41.3144 22.1318 38.3704 22.1318C36.6364 22.1318 34.7211 21.3525 33.6238 20.1467Z" fill="#1A1A1A"/>
<path d="M60.5752 8.42707V20.5923C60.5752 21.4647 59.9286 22.1313 59.0812 22.1313C58.2092 22.1313 57.5627 21.4598 57.5627 20.5923V13.3137L54.7951 17.6662C54.3689 18.3377 53.9672 18.6268 53.3696 18.6268C52.7916 18.6268 52.3654 18.3377 51.9442 17.6662L49.1766 13.2696V20.5923C49.1766 21.4647 48.53 22.1313 47.6826 22.1313C46.8107 22.1313 46.1641 21.4598 46.1641 20.5923V8.42707C46.1641 7.53501 46.7911 6.86353 47.6385 6.86353C48.2851 6.86353 48.7112 7.17721 49.2207 8.02515L53.3696 14.6126L57.5186 8.02515C58.0525 7.17721 58.4542 6.86353 59.1008 6.86353C59.9482 6.86353 60.5752 7.53501 60.5752 8.42707Z" fill="#1A1A1A"/>
<path d="M76.2542 20.6805C76.2542 21.4843 75.6272 22.1313 74.7798 22.1313C74.1332 22.1313 73.6433 21.7539 73.3543 21.0579L72.7273 19.5385H66.5015L65.8745 21.0579C65.6051 21.749 65.1152 22.1313 64.4686 22.1313C63.6212 22.1313 62.9746 21.4843 62.9746 20.6805C62.9746 20.4551 63.0432 20.1904 63.151 19.8767L68.1914 7.88791C68.4608 7.21642 68.9507 6.86353 69.6169 6.86353C70.2879 6.86353 70.7778 7.22133 71.0423 7.88791L76.0632 19.8767C76.2101 20.1904 76.2542 20.46 76.2542 20.6805ZM67.486 17.0633H71.7232L69.6267 11.3042L67.486 17.0633Z" fill="#1A1A1A"/>
<path d="M90.3075 20.7491C90.3075 21.5088 89.6609 22.1313 88.9017 22.1313C88.3677 22.1313 87.922 21.8617 87.5644 21.352L84.2629 16.6663H84.2384H81.6961V20.5972C81.6961 21.4696 81.0495 22.1362 80.2021 22.1362C79.3302 22.1362 78.6836 21.4647 78.6836 20.5972V8.6476C78.6836 7.77516 79.3302 7.12817 80.2217 7.12817H84.2384C87.3832 7.12817 89.5238 9.04951 89.5238 11.858C89.5238 13.6421 88.6519 15.0929 87.2264 15.9213L89.8814 19.6022C90.1508 20.009 90.3075 20.3913 90.3075 20.7491ZM81.6961 14.0048H84.2188C85.6001 14.0048 86.4476 13.1765 86.4476 11.8825C86.4476 10.6082 85.5757 9.78472 84.2188 9.78472H81.6961V14.0048Z" fill="#1A1A1A"/>
<path d="M95.7504 20.5923V9.85334H92.2481C91.4692 9.85334 90.8667 9.25047 90.8667 8.49076C90.8667 7.71144 91.4692 7.12817 92.2481 7.12817H102.265C103.069 7.12817 103.647 7.70654 103.647 8.49076C103.647 9.25047 103.044 9.85334 102.265 9.85334H98.7629V20.5923C98.7629 21.4647 98.1163 22.1313 97.2444 22.1313C96.397 22.1313 95.7504 21.4598 95.7504 20.5923Z" fill="#1A1A1A"/>
</svg>
